<svg width="1042" height="913" viewBox="0 0 1042 913" fill="none" xmlns="http://www.w3.org/2000/svg">
<g filter="url(#filter0_f_803_2)">
<ellipse cx="576.425" cy="840.934" rx="342.752" ry="8" fill="black"/>
</g>
<path d="M124.774 208.062C115.323 210.595 109.714 220.309 112.247 229.76L233.703 683.043C236.236 692.493 245.95 698.102 255.401 695.57L909.499 520.305C918.949 517.772 924.558 508.058 922.026 498.607L800.569 45.3244C798.036 35.8736 788.322 30.2651 778.871 32.7974L124.774 208.062Z" fill="url(#paint0_linear_803_2)"/>
<path d="M124.774 208.062C115.323 210.595 109.714 220.309 112.247 229.76L233.703 683.043C236.236 692.493 245.95 698.102 255.401 695.57L909.499 520.305C918.949 517.772 924.558 508.058 922.026 498.607L800.569 45.3244C798.036 35.8736 788.322 30.2651 778.871 32.7974L124.774 208.062Z" fill="url(#paint1_linear_803_2)"/>
<path d="M124.774 208.062C115.323 210.595 109.714 220.309 112.247 229.76L233.703 683.043C236.236 692.493 245.95 698.102 255.401 695.57L909.499 520.305C918.949 517.772 924.558 508.058 922.026 498.607L800.569 45.3244C798.036 35.8736 788.322 30.2651 778.871 32.7974L124.774 208.062Z" stroke="#333333" stroke-width="1.41727"/>
<path d="M903.759 486.805L904.443 486.622L904.26 485.937L788.154 52.6258C786.837 47.7114 781.786 44.7949 776.872 46.1118L133.161 218.594C128.246 219.91 125.33 224.962 126.647 229.876L242.752 663.188L242.935 663.872L243.62 663.689L903.759 486.805Z" fill="black" stroke="#444444" stroke-width="1.41727"/>
<path d="M128.506 721.819L1032.52 479.59L1036.87 495.832C1037.83 499.43 1036.35 503.235 1033.17 505.174C1029.01 507.706 1023.21 511.162 1018.69 513.538C1009.82 518.197 972.763 530.265 972.763 530.265L212.467 733.986C211.715 734.187 210.985 734.389 210.235 734.597C204.269 736.245 175.417 743.967 155.623 744.768C151.112 744.951 145.197 744.85 140.787 744.722C137.088 744.615 133.932 742.069 132.974 738.495L128.506 721.819Z" fill="url(#paint2_linear_803_2)"/>
<path d="M128.506 721.819L1032.52 479.59L1036.87 495.832C1037.83 499.43 1036.35 503.235 1033.17 505.174C1029.01 507.706 1023.21 511.162 1018.69 513.538C1009.82 518.197 972.763 530.265 972.763 530.265L212.467 733.986C211.715 734.187 210.985 734.389 210.235 734.597C204.269 736.245 175.417 743.967 155.623 744.768C151.112 744.951 145.197 744.85 140.787 744.722C137.088 744.615 133.932 742.069 132.974 738.495L128.506 721.819Z" fill="url(#paint3_linear_803_2)" fill-opacity="0.3"/>
<path d="M512.799 620.741L649.169 584.201C651.437 592.668 646.413 601.37 637.947 603.638L532.236 631.963C523.77 634.232 515.068 629.208 512.799 620.741Z" fill="#C4C4C4"/>
<path d="M512.799 620.741L649.169 584.201C651.437 592.668 646.413 601.37 637.947 603.638L532.236 631.963C523.77 634.232 515.068 629.208 512.799 620.741Z" fill="url(#paint4_linear_803_2)"/>
<path d="M512.799 620.741L649.169 584.201C651.437 592.668 646.413 601.37 637.947 603.638L532.236 631.963C523.77 634.232 515.068 629.208 512.799 620.741Z" fill="url(#paint5_linear_803_2)"/>
<defs>
<filter id="filter0_f_803_2" x="169.672" y="768.934" width="813.504" height="144" filterUnits="userSpaceOnUse" color-interpolation-filters="sRGB">
<feFlood flood-opacity="0" result="BackgroundImageFix"/>
<feBlend mode="normal" in="SourceGraphic" in2="BackgroundImageFix" result="shape"/>
<feGaussianBlur stdDeviation="32" result="effect1_foregroundBlur_803_2"/>
</filter>
<linearGradient id="paint0_linear_803_2" x1="108.529" y1="213.149" x2="932.146" y2="496.613" gradientUnits="userSpaceOnUse">
<stop stop-color="#333333"/>
<stop offset="0.53125" stop-color="#596368"/>
<stop offset="1" stop-color="#333333"/>
</linearGradient>
<linearGradient id="paint1_linear_803_2" x1="452.006" y1="121.114" x2="585.89" y2="620.776" gradientUnits="userSpaceOnUse">
<stop offset="0.6875" stop-opacity="0.4"/>
<stop offset="0.883584" stop-color="#333333" stop-opacity="0.643"/>
<stop offset="1" stop-opacity="0.94"/>
</linearGradient>
<linearGradient id="paint2_linear_803_2" x1="1032.52" y1="479.591" x2="128.506" y2="721.819" gradientUnits="userSpaceOnUse">
<stop stop-color="#212121"/>
<stop offset="0.5" stop-color="#555555"/>
<stop offset="1" stop-color="#212121"/>
</linearGradient>
<linearGradient id="paint3_linear_803_2" x1="580.511" y1="600.705" x2="589.183" y2="633.067" gradientUnits="userSpaceOnUse">
<stop stop-color="#666666"/>
<stop offset="0.5" stop-color="#666666"/>
<stop offset="0.541667" stop-opacity="0.5"/>
<stop offset="1"/>
</linearGradient>
<linearGradient id="paint4_linear_803_2" x1="580.984" y1="602.471" x2="585.092" y2="617.801" gradientUnits="userSpaceOnUse">
<stop stop-color="#999999"/>
<stop offset="0.151042" stop-color="#777777"/>
<stop offset="0.609375" stop-color="#444444"/>
<stop offset="0.822917" stop-color="#333333"/>
<stop offset="1" stop-color="#222222"/>
</linearGradient>
<linearGradient id="paint5_linear_803_2" x1="512.799" y1="620.741" x2="649.169" y2="584.201" gradientUnits="userSpaceOnUse">
<stop stop-color="#333333"/>
<stop offset="0.130208" stop-color="#333333" stop-opacity="0.42"/>
<stop offset="0.932292" stop-color="#333333" stop-opacity="0.118947"/>
<stop offset="1" stop-color="#333333" stop-opacity="0.83"/>
</linearGradient>
</defs>
</svg>
