<svg fill="none" height="533" viewBox="0 0 936 533" width="936" xmlns="http://www.w3.org/2000/svg" xmlns:xlink="http://www.w3.org/1999/xlink"><linearGradient id="a" gradientUnits="userSpaceOnUse" x1="112.358" x2="834.545" y1="2" y2="488.974"><stop offset="0" stop-color="#333"/><stop offset=".53125" stop-color="#596368"/><stop offset="1" stop-color="#333"/></linearGradient><linearGradient id="b" gradientUnits="userSpaceOnUse" x1="467.951" x2="467.951" y1="2" y2="519.288"><stop offset=".6875" stop-opacity=".4"/><stop offset=".883584" stop-color="#333" stop-opacity=".643"/><stop offset="1" stop-opacity=".94"/></linearGradient><linearGradient id="c" gradientUnits="userSpaceOnUse" x1="935.901" x2="0" y1="498.509" y2="498.508"><stop offset="0" stop-color="#212121"/><stop offset=".5" stop-color="#555"/><stop offset="1" stop-color="#212121"/></linearGradient><linearGradient id="d" gradientUnits="userSpaceOnUse" x1="467.95" x2="467.95" y1="498.508" y2="532.012"><stop offset="0" stop-color="#666"/><stop offset=".5" stop-color="#666"/><stop offset=".541667" stop-opacity=".5"/><stop offset="1"/></linearGradient><linearGradient id="e" gradientUnits="userSpaceOnUse" x1="467.95" x2="467.95" y1="500.337" y2="516.207"><stop offset="0" stop-color="#999"/><stop offset=".151042" stop-color="#777"/><stop offset=".609375" stop-color="#444"/><stop offset=".822917" stop-color="#333"/><stop offset="1" stop-color="#222"/></linearGradient><linearGradient id="f" gradientUnits="userSpaceOnUse" x1="397.36" x2="538.54" y1="500.337" y2="500.337"><stop offset="0" stop-color="#333"/><stop offset=".130208" stop-color="#333" stop-opacity=".42"/><stop offset=".932292" stop-color="#333" stop-opacity=".118947"/><stop offset="1" stop-color="#333" stop-opacity=".83"/></linearGradient><path d="m129.365 1.29136c-9.784 0-17.716 7.93168-17.716 17.71584v469.2728c0 9.784 7.932 17.716 17.716 17.716h677.172c9.784 0 17.716-7.932 17.716-17.716v-469.2728c0-9.78417-7.932-17.71584-17.716-17.71584z" fill="url(#a)"/><path d="m129.365 1.29136c-9.784 0-17.716 7.93168-17.716 17.71584v469.2728c0 9.784 7.932 17.716 17.716 17.716h677.172c9.784 0 17.716-7.932 17.716-17.716v-469.2728c0-9.78417-7.932-17.71584-17.716-17.71584z" fill="url(#b)"/><path d="m129.365 1.29136c-9.784 0-17.716 7.93168-17.716 17.71584v469.2728c0 9.784 7.932 17.716 17.716 17.716h677.172c9.784 0 17.716-7.932 17.716-17.716v-469.2728c0-9.78417-7.932-17.71584-17.716-17.71584z" stroke="#333" stroke-width="1.41727"/><path d="m809.663 472.152h.709v-.708-448.5972c0-5.0878-4.125-9.2122-9.213-9.2122h-666.418c-5.088 0-9.213 4.1245-9.213 9.2122v448.5972.708h.709z" fill="#000" stroke="#444" stroke-width="1.41727"/><path d="m0 498.508h935.901v16.815c0 3.725-2.421 7.016-5.994 8.066-4.666 1.371-11.165 3.208-16.149 4.331-9.775 2.205-48.69 4.271-48.69 4.271h-787.1171c-.7783 0-1.5352.007-2.3134.013-6.1892.048-36.0576.039-55.3844-4.31-4.4042-.991-10.0919-2.62-14.31815-3.884-3.5453-1.061-5.93495-4.337-5.93495-8.038z" fill="url(#c)"/><path d="m0 498.508h935.901v16.815c0 3.725-2.421 7.016-5.994 8.066-4.666 1.371-11.165 3.208-16.149 4.331-9.775 2.205-48.69 4.271-48.69 4.271h-787.1171c-.7783 0-1.5352.007-2.3134.013-6.1892.048-36.0576.039-55.3844-4.31-4.4042-.991-10.0919-2.62-14.31815-3.884-3.5453-1.061-5.93495-4.337-5.93495-8.038z" fill="url(#d)" fill-opacity=".3"/><path d="m397.36 500.337h141.18c0 8.765-7.106 15.87-15.87 15.87h-109.44c-8.765 0-15.87-7.105-15.87-15.87z" fill="#c4c4c4"/><path d="m397.36 500.337h141.18c0 8.765-7.106 15.87-15.87 15.87h-109.44c-8.765 0-15.87-7.105-15.87-15.87z" fill="url(#e)"/><path d="m397.36 500.337h141.18c0 8.765-7.106 15.87-15.87 15.87h-109.44c-8.765 0-15.87-7.105-15.87-15.87z" fill="url(#f)"/></svg>