<svg fill="none" height="46" viewBox="0 0 35 46" width="35" xmlns="http://www.w3.org/2000/svg"><path d="m33.043 8.19531c1.0781 1.07813 1.707 2.51559 1.707 4.04299v27.7617c0 3.2344-2.6055 5.75-5.75 5.75h-23c-3.23438 0-5.75-2.5156-5.75-5.75v-34.5c0-3.14453 2.51562-5.75 5.75-5.75h16.2617c1.5274 0 2.9649.628906 4.043 1.70703zm-2.6055 31.80469h-.0898v-25.875h-7.0977c-1.6172 0-2.875-1.2578-2.875-2.875v-7.09766h-14.375c-.80859 0-1.4375.62891-1.4375 1.4375v34.41016c0 .8086.62891 1.4375 1.4375 1.4375h23c.7188 0 1.4375-.6289 1.4375-1.4375zm-21.5625-15.0938c0-1.1679.89844-2.1562 2.1562-2.1562h12.9376c1.1679 0 2.1562.9883 2.1562 2.1562 0 1.2579-.9883 2.1563-2.1562 2.1563h-12.9376c-1.25776 0-2.1562-.8984-2.1562-2.1563zm15.0938 6.4688c1.1679 0 2.1562.9883 2.1562 2.1562 0 1.2579-.9883 2.1563-2.1562 2.1563h-12.9376c-1.25776 0-2.1562-.8984-2.1562-2.1563 0-1.1679.89844-2.1562 2.1562-2.1562z" fill="#fff"/></svg>