<svg fill="none" height="45" viewBox="0 0 45 45" width="45" xmlns="http://www.w3.org/2000/svg"><path d="m15.043 35.5078c0-.1797-.1797-.3594-.4492-.3594-.2696 0-.4493.1797-.4493.3594s.1797.3594.4493.2695c.2695 0 .4492-.0898.4492-.2695zm-2.7852-.4492c.0899-.1797.3594-.2695.6289-.1797.2695.0899.3594.2695.3594.4492-.0899.1797-.3594.2696-.5391.1797-.2695 0-.4492-.2695-.4492-.4492zm4.043-.0898c.1797-.0899.4492.0898.4492.2695.0898.1797-.0898.2695-.3594.3594-.2695.0898-.539 0-.539-.1797 0-.2696.1796-.4492.4492-.4492zm5.8398-34.50005c12.4883 0 22.6406 9.52344 22.6406 21.92185 0 9.9727-6.1093 18.5078-15.0937 21.4727-1.168.2695-1.6172-.4492-1.6172-1.0781 0-.7188.0899-4.4922.0899-7.4571 0-2.1562-.7188-3.5039-1.5274-4.2226 5.0313-.5391 10.332-1.2578 10.332-9.8828 0-2.5157-.8984-3.6836-2.3359-5.3008.1797-.6289.9883-2.9649-.2695-6.1094-1.8867-.62891-6.1992 2.4258-6.1992 2.4258-1.7969-.5391-3.6836-.7188-5.6602-.7188-1.8867 0-3.7734.1797-5.5703.7188 0 0-4.4024-2.96486-6.1992-2.4258-1.25784 3.1445-.5391 5.4805-.2696 6.1094-1.43746 1.6172-2.15621 2.7851-2.15621 5.3008 0 8.625 5.12111 9.3437 10.15231 9.8828-.7187.6289-1.2578 1.6172-1.4375 3.0547-1.3476.6289-4.582 1.6171-6.5586-1.8868-1.25778-2.1562-3.50387-2.3359-3.50387-2.3359-2.15625 0-.08984 1.4375-.08984 1.4375 1.4375.6289 2.42578 3.2344 2.42578 3.2344 1.34763 4.0429 7.63673 2.6953 7.63673 2.6953v5.5703c0 .5391-.3594 1.2578-1.5274 1.0781-8.98433-3.0547-15.18355-11.5898-15.18355-21.5625 0-12.39841 9.52344-21.92185 21.92185-21.92185zm-13.20701 30.99605c.08985-.0898.26953 0 .44922.0899.17969.1797.17969.4492.08985.5391-.17969.0898-.35938 0-.53907-.0899-.08984-.1797-.17968-.4492 0-.5391zm-.98828-.7187c.08985-.0899.17969-.0899.35938 0 .17969.0898.26953.1797.26953.2695-.08984.1797-.26953.1797-.44922.0899-.17969-.0899-.26953-.1797-.17969-.3594zm2.87499 3.2344c.1797-.1797.4492-.0899.6289.0898s.1797.4492.0899.5391c-.0899.1797-.3594.0898-.5391-.0899-.2695-.1797-.2695-.4492-.1797-.539zm-.98827-1.3477c.17967-.0898.35937 0 .53907.1797.0898.1797.0898.4492 0 .5391-.1797.0898-.3594 0-.53907-.1797-.17969-.1797-.17969-.4492 0-.5391z" fill="#fff"/></svg>