<svg fill="none" height="41" viewBox="0 0 41 41" width="41" xmlns="http://www.w3.org/2000/svg"><path d="m37.75.625c1.5273 0 2.875 1.34766 2.875 2.96484v34.41016c0 1.6172-1.3477 2.875-2.875 2.875h-34.58984c-1.52735 0-2.78516-1.2578-2.78516-2.875v-34.41016c0-1.61718 1.25781-2.96484 2.78516-2.96484zm-25.2461 34.5v-19.1367h-5.92968v19.1367zm-2.96484-21.832c1.88674 0 3.41404-1.5274 3.41404-3.41409 0-1.88672-1.5273-3.50391-3.41404-3.50391-1.97656 0-3.5039 1.61719-3.5039 3.50391 0 1.88669 1.52734 3.41409 3.5039 3.41409zm25.33594 21.832v-10.5117c0-5.1211-1.168-9.1641-7.1875-9.1641-2.875 0-4.8516 1.6172-5.6602 3.1446h-.0898v-2.6055h-5.6602v19.1367h5.9297v-9.4336c0-2.5156.4492-4.9414 3.5938-4.9414 3.0547 0 3.0547 2.875 3.0547 5.0312v9.3438z" fill="#fff"/></svg>